<?xml version="1.0" encoding="utf-8"?>
<!-- Generator: Adobe Illustrator 27.9.0, SVG Export Plug-In . SVG Version: 6.00 Build 0)  -->
<svg version="1.1" xmlns="http://www.w3.org/2000/svg" xmlns:xlink="http://www.w3.org/1999/xlink" x="0px" y="0px"
	 viewBox="0 0 1500 600" style="enable-background:new 0 0 1500 600;" xml:space="preserve">
<style type="text/css">
	.st0{fill:#2D484C;}
	.st1{fill:#E39F51;}
	.st2{fill:#FFFFFF;stroke:#2D484C;stroke-miterlimit:10;}
	.st3{fill:#E2EBEE;}
	.st4{fill:#A4BCCA;}
	.st5{fill:#00FFFF;fill-opacity:0.1;}
	.st6{fill:#22494C;}
</style>
<g id="Layer_1">
	<g>
		<path class="st0" d="M294.5,386.6V188.8h75.9c14.3,0,26.1,2.2,35.6,6.7c9.5,4.5,16.6,10.6,21.2,18.3c4.7,7.7,7,16.5,7,26.2
			c0,8.1-1.5,14.9-4.6,20.6c-3.1,5.7-7.2,10.3-12.4,13.9c-5.2,3.5-11.1,6.1-17.5,7.7v2c7.1,0.3,13.8,2.4,20.2,6.3
			c6.4,3.9,11.7,9.4,15.8,16.5c4.1,7.1,6.2,15.6,6.2,25.6c0,10.3-2.5,19.5-7.4,27.6c-4.9,8.1-12.3,14.5-22.3,19.3
			c-10,4.7-22.5,7.1-37.6,7.1H294.5z M330.4,272.9H366c6.1,0,11.6-1.1,16.6-3.5c5-2.3,8.9-5.6,11.8-9.8c2.9-4.2,4.3-9.2,4.3-14.9
			c0-7.6-2.7-13.9-8.1-18.9c-5.4-5-13.3-7.5-23.8-7.5h-36.4V272.9z M330.4,356.7h38.5c13,0,22.4-2.5,28.2-7.6
			c5.8-5,8.7-11.5,8.7-19.3c0-5.9-1.5-11.2-4.4-15.9c-2.9-4.7-7.1-8.4-12.4-11.2c-5.4-2.7-11.7-4.1-18.9-4.1h-39.7V356.7z"/>
		<path class="st0" d="M497.7,389.7c-9.5,0-18-1.7-25.5-5.1c-7.5-3.4-13.5-8.4-17.8-15.1c-4.3-6.6-6.5-14.8-6.5-24.6
			c0-8.3,1.5-15.2,4.6-20.7c3.1-5.5,7.3-9.9,12.7-13.1c5.4-3.3,11.4-5.8,18.1-7.5c6.7-1.7,13.7-2.9,20.8-3.7
			c8.8-1,15.8-1.8,21.2-2.5c5.4-0.7,9.3-1.9,11.8-3.5c2.4-1.6,3.7-4.1,3.7-7.4v-0.7c0-7.2-2.1-12.7-6.4-16.7c-4.2-4-10.4-6-18.6-6
			c-8.6,0-15.4,1.9-20.4,5.6c-5,3.7-8.4,8.1-10.2,13.1l-32.5-4.6c2.6-9,6.8-16.6,12.7-22.6c5.9-6.1,13.2-10.6,21.7-13.7
			c8.5-3.1,18-4.6,28.3-4.6c7.1,0,14.2,0.8,21.2,2.5c7.1,1.6,13.6,4.4,19.5,8.3c5.9,3.9,10.7,9.1,14.2,15.7
			c3.5,6.6,5.3,14.7,5.3,24.6v99.3h-33.6v-20.4h-1.1c-2.1,4.1-5.1,7.9-9,11.5s-8.6,6.5-14.3,8.7
			C512.2,388.5,505.4,389.7,497.7,389.7z M506.6,363.9c7.1,0,13.2-1.4,18.3-4.2c5.1-2.8,9.1-6.5,12-11.2c2.8-4.6,4.2-9.7,4.2-15.2
			V316c-1.2,0.9-3,1.7-5.6,2.5c-2.6,0.8-5.5,1.4-8.8,2.1c-3.3,0.6-6.5,1.2-9.6,1.6c-3.1,0.4-5.9,0.8-8.2,1.1
			c-5.2,0.7-9.9,1.9-14,3.5c-4.1,1.6-7.4,3.9-9.8,6.7c-2.4,2.8-3.6,6.5-3.6,11c0,6.5,2.3,11.3,7,14.6
			C493.3,362.3,499.3,363.9,506.6,363.9z"/>
		<path class="st0" d="M629.9,299.8v86.8H595V238.2h34.3v25.4h1.7c3.4-8.3,8.7-14.9,15.9-19.9c7.2-4.9,16.4-7.4,27.6-7.4
			c10.3,0,19.2,2.2,26.8,6.5c7.6,4.3,13.5,10.7,17.7,19.1c4.2,8.4,6.3,18.5,6.3,30.3v94.4h-34.9v-89c0-9.9-2.6-17.7-7.7-23.3
			c-5.1-5.6-12.2-8.4-21.2-8.4c-6.1,0-11.5,1.3-16.3,4c-4.7,2.7-8.5,6.5-11.2,11.5C631.2,286.4,629.9,292.5,629.9,299.8z"/>
		<path class="st0" d="M744.2,386.6V188.8h34.9v197.8H744.2z M776,340.1l-0.1-42.4h5.7l53.2-59.6h40.9l-65.6,73.2h-7.3L776,340.1z
			 M837.3,386.6l-48.3-67.5l23.6-24.7l66.5,92.1H837.3z"/>
	</g>
	<g>
		<path class="st1" d="M901,392.8V195H919v181.6h94.4v16.2H901z"/>
		<path class="st1" d="M1095.2,396c-13.8,0-25.8-3.3-36-9.8c-10.2-6.5-18-15.5-23.5-27c-5.5-11.5-8.2-24.7-8.2-39.7
			c0-15,2.7-28.2,8.2-39.8c5.4-11.6,13-20.7,22.8-27.4c9.7-6.6,21-10,33.9-10c8,0,15.7,1.5,23.2,4.4c7.5,3,14.3,7.5,20.3,13.5
			c6,6,10.8,13.7,14.2,22.9c3.5,9.3,5.2,20.2,5.2,33v7.7h-115.9v-15.1h106.6l-7.8,5.8c0-10.8-1.8-20.4-5.5-28.9
			c-3.7-8.5-8.9-15.2-15.7-20.2c-6.8-5-15-7.4-24.6-7.4c-9.5,0-17.8,2.5-25,7.5c-7.2,5-12.7,11.6-16.7,19.9
			c-3.9,8.3-5.9,17.3-5.9,27.2v8.9c0,11.9,2.1,22.2,6.2,31c4.1,8.8,10,15.6,17.5,20.5c7.6,4.9,16.5,7.3,26.8,7.3
			c7,0,13.1-1.1,18.5-3.3c5.3-2.2,9.8-5.2,13.4-9c3.6-3.8,6.4-7.9,8.2-12.3l16.3,5.4c-2.3,6.2-6,11.9-11.1,17.2
			c-5.1,5.3-11.5,9.5-19.1,12.7C1113.8,394.4,1105,396,1095.2,396z"/>
		<path class="st1" d="M1194.1,300.2v92.7H1177V244.4h16.6v23.5h1.7c3.5-7.7,8.9-13.9,16.2-18.5c7.3-4.6,16.5-6.9,27.4-6.9
			c10,0,18.8,2.1,26.4,6.2c7.6,4.2,13.5,10.3,17.7,18.3c4.2,8.1,6.4,18,6.4,29.7v96h-17.1v-94.9c0-12.1-3.4-21.8-10.2-28.9
			c-6.8-7.2-15.9-10.8-27.4-10.8c-7.8,0-14.7,1.7-20.8,5.1c-6.1,3.4-10.9,8.2-14.4,14.5C1195.9,284,1194.1,291.5,1194.1,300.2z"/>
		<path class="st1" d="M1419,277.2l-15.7,4.2c-2.3-6.6-6.1-12.3-11.5-16.9c-5.4-4.6-13-7-23-7c-10,0-18.2,2.4-24.7,7.2
			c-6.5,4.8-9.7,11-9.7,18.5c0,6.3,2.2,11.4,6.6,15.5c4.4,4,11.2,7.2,20.4,9.5l22.4,5.4c12.4,3.1,21.7,7.9,28,14.4
			c6.2,6.5,9.4,14.7,9.4,24.6c0,8.3-2.3,15.8-7,22.3c-4.6,6.6-11.1,11.7-19.3,15.4c-8.2,3.7-17.8,5.6-28.7,5.6
			c-14.5,0-26.5-3.3-35.9-9.9c-9.4-6.6-15.4-16-18.1-28.3l16.5-4c2,8.8,6.2,15.4,12.5,19.9c6.3,4.5,14.5,6.8,24.7,6.8
			c11.3,0,20.4-2.6,27.4-7.7c6.9-5.1,10.4-11.5,10.4-19.1c0-12.2-8.1-20.3-24.3-24.3l-24.2-5.8c-12.9-3.1-22.5-8-28.7-14.6
			c-6.2-6.6-9.3-14.9-9.3-24.8c0-8.1,2.2-15.4,6.7-21.6c4.5-6.3,10.6-11.2,18.4-14.7c7.8-3.5,16.6-5.3,26.6-5.3
			c13.6,0,24.5,3.1,32.7,9.4C1409.6,258,1415.5,266.5,1419,277.2z"/>
	</g>
</g>
<g id="icon">
	<g>
		<g>
			<path class="st2" d="M187.6,324.7H86.8c-4.4,0-8-3.6-8-8V167.8c0-4.4,3.6-8,8-8h100.8c4.4,0,8,3.6,8,8v148.9
				C195.6,321.1,192,324.7,187.6,324.7z"/>
			<path class="st3" d="M80.1,221.3c2.8,11.7,25,92.1,88.7,102.8l-77.2,0c-6.3,0.1-11.5-5-11.5-11.4V221.3z"/>
			<circle class="st4" cx="109.2" cy="200.2" r="11.5"/>
			<path class="st4" d="M170.3,197.5h-39.8c-0.9,0-1.7-0.8-1.7-1.7v-1.7c0-0.9,0.8-1.7,1.7-1.7h39.8c0.9,0,1.7,0.8,1.7,1.7v1.7
				C172,196.8,171.2,197.5,170.3,197.5z"/>
			<path class="st4" d="M156.4,234.2H98.2c-0.9,0-1.7-0.8-1.7-1.7v-1.7c0-0.9,0.8-1.7,1.7-1.7h58.2c0.9,0,1.7,0.8,1.7,1.7v1.7
				C158.1,233.4,157.3,234.2,156.4,234.2z"/>
			<path class="st4" d="M156.4,263.4H98.2c-0.9,0-1.7-0.8-1.7-1.7V260c0-0.9,0.8-1.7,1.7-1.7h58.2c0.9,0,1.7,0.8,1.7,1.7v1.7
				C158.1,262.7,157.3,263.4,156.4,263.4z"/>
			<path class="st4" d="M170.3,274.5H98.2c-0.9,0-1.7-0.8-1.7-1.7v-1.7c0-0.9,0.8-1.7,1.7-1.7h72.1c0.9,0,1.7,0.8,1.7,1.7v1.7
				C172,273.8,171.2,274.5,170.3,274.5z"/>
			<path class="st4" d="M122.7,245.1H98.2c-0.9,0-1.7-0.8-1.7-1.7v-1.7c0-0.9,0.8-1.7,1.7-1.7h24.5c0.9,0,1.7,0.8,1.7,1.7v1.7
				C124.4,244.3,123.6,245.1,122.7,245.1z"/>
			<path class="st4" d="M122.7,286.6H98.2c-0.9,0-1.7-0.8-1.7-1.7v-1.7c0-0.9,0.8-1.7,1.7-1.7h24.5c0.9,0,1.7,0.8,1.7,1.7v1.7
				C124.4,285.9,123.6,286.6,122.7,286.6z"/>
			<path class="st4" d="M146.7,207.2h-16.3c-0.9,0-1.7-0.8-1.7-1.7v-1.7c0-0.9,0.8-1.7,1.7-1.7h16.3c0.9,0,1.7,0.8,1.7,1.7v1.7
				C148.4,206.4,147.7,207.2,146.7,207.2z"/>
		</g>
		<g>
			<path class="st2" d="M212.2,351.9H105.6c-4.4,0-8-3.6-8-8V186.8c0-4.4,3.6-8,8-8h106.6c4.4,0,8,3.6,8,8v157.1
				C220.2,348.3,216.6,351.9,212.2,351.9z"/>
			<path class="st3" d="M98.9,243.3c3,12.3,26.2,96.7,93.1,107.9l-81,0c-6.7,0.1-12.1-5.3-12.1-11.9V243.3z"/>
			<circle class="st4" cx="129.4" cy="221.2" r="12.1"/>
			<path class="st4" d="M193.7,218.4h-42c-0.9,0-1.7-0.8-1.7-1.7v-2c0-0.9,0.8-1.7,1.7-1.7h42c0.9,0,1.7,0.8,1.7,1.7v2
				C195.3,217.6,194.6,218.4,193.7,218.4z"/>
			<path class="st4" d="M179.1,256.9h-61.3c-0.9,0-1.7-0.8-1.7-1.7v-2c0-0.9,0.8-1.7,1.7-1.7h61.3c0.9,0,1.7,0.8,1.7,1.7v2
				C180.8,256.1,180,256.9,179.1,256.9z"/>
			<path class="st4" d="M179.1,287.6h-61.3c-0.9,0-1.7-0.8-1.7-1.7v-2c0-0.9,0.8-1.7,1.7-1.7h61.3c0.9,0,1.7,0.8,1.7,1.7v2
				C180.8,286.8,180,287.6,179.1,287.6z"/>
			<path class="st4" d="M193.7,299.2h-75.9c-0.9,0-1.7-0.8-1.7-1.7v-2c0-0.9,0.8-1.7,1.7-1.7h75.9c0.9,0,1.7,0.8,1.7,1.7v2
				C195.3,298.4,194.6,299.2,193.7,299.2z"/>
			<path class="st4" d="M143.7,268.3h-25.9c-0.9,0-1.7-0.8-1.7-1.7v-2c0-0.9,0.8-1.7,1.7-1.7h25.9c0.9,0,1.7,0.8,1.7,1.7v2
				C145.4,267.5,144.7,268.3,143.7,268.3z"/>
			<path class="st4" d="M143.7,311.9h-25.9c-0.9,0-1.7-0.8-1.7-1.7v-2c0-0.9,0.8-1.7,1.7-1.7h25.9c0.9,0,1.7,0.8,1.7,1.7v2
				C145.4,311.1,144.7,311.9,143.7,311.9z"/>
			<path class="st4" d="M169,228.5h-17.3c-0.9,0-1.7-0.8-1.7-1.7v-2c0-0.9,0.8-1.7,1.7-1.7H169c0.9,0,1.7,0.8,1.7,1.7v2
				C170.6,227.7,169.9,228.5,169,228.5z"/>
		</g>
		<g>
			<path class="st2" d="M246.7,389H125.3c-4.4,0-8-3.6-8-8V203c0-4.4,3.6-8,8-8h121.4c4.4,0,8,3.6,8,8v178
				C254.7,385.4,251.1,389,246.7,389z"/>
			<path class="st3" d="M118.8,267.3c3.3,13.8,29.4,108.4,104.4,121l-90.8,0c-7.5,0.1-13.6-5.9-13.6-13.4V267.3z"/>
			<circle class="st4" cx="153" cy="242.5" r="13.6"/>
			<path class="st4" d="M225.2,239.3h-47.5c-0.9,0-1.7-0.8-1.7-1.7V235c0-0.9,0.8-1.7,1.7-1.7h47.5c0.9,0,1.7,0.8,1.7,1.7v2.6
				C226.9,238.6,226.1,239.3,225.2,239.3z"/>
			<path class="st4" d="M208.8,282.5h-69.1c-0.9,0-1.7-0.8-1.7-1.7v-2.6c0-0.9,0.8-1.7,1.7-1.7h69.1c0.9,0,1.7,0.8,1.7,1.7v2.6
				C210.5,281.7,209.8,282.5,208.8,282.5z"/>
			<path class="st4" d="M208.8,316.9h-69.1c-0.9,0-1.7-0.8-1.7-1.7v-2.6c0-0.9,0.8-1.7,1.7-1.7h69.1c0.9,0,1.7,0.8,1.7,1.7v2.6
				C210.5,316.1,209.8,316.9,208.8,316.9z"/>
			<path class="st4" d="M225.2,329.9h-85.4c-0.9,0-1.7-0.8-1.7-1.7v-2.6c0-0.9,0.8-1.7,1.7-1.7h85.4c0.9,0,1.7,0.8,1.7,1.7v2.6
				C226.9,329.2,226.1,329.9,225.2,329.9z"/>
			<path class="st4" d="M169.2,295.3h-29.5c-0.9,0-1.7-0.8-1.7-1.7V291c0-0.9,0.8-1.7,1.7-1.7h29.5c0.9,0,1.7,0.8,1.7,1.7v2.6
				C170.9,294.5,170.1,295.3,169.2,295.3z"/>
			<path class="st4" d="M169.2,344.2h-29.5c-0.9,0-1.7-0.8-1.7-1.7v-2.6c0-0.9,0.8-1.7,1.7-1.7h29.5c0.9,0,1.7,0.8,1.7,1.7v2.6
				C170.9,343.4,170.1,344.2,169.2,344.2z"/>
			<path class="st4" d="M197.5,250.7h-19.8c-0.9,0-1.7-0.8-1.7-1.7v-2.6c0-0.9,0.8-1.7,1.7-1.7h19.8c0.9,0,1.7,0.8,1.7,1.7v2.6
				C199.2,249.9,198.4,250.7,197.5,250.7z"/>
		</g>
		<g>
			<circle class="st5" cx="222.3" cy="288.1" r="58.5"/>
			
				<rect x="278.7" y="313.3" transform="matrix(0.5426 -0.84 0.84 0.5426 -146.2316 390.7982)" class="st6" width="14" height="32.7"/>
			<path class="st1" d="M222.3,354c-36.3,0-65.9-29.6-65.9-65.9s29.6-65.9,65.9-65.9c36.3,0,65.9,29.6,65.9,65.9
				S258.6,354,222.3,354z M222.3,237.1c-28.1,0-51,22.9-51,51c0,28.1,22.9,51,51,51s51-22.9,51-51
				C273.3,260,250.4,237.1,222.3,237.1z"/>
			<path class="st6" d="M219.7,331.9c-16.6,0-31.5-10.6-37.9-27.1c-6.8-17.4-2.1-36.3,12.2-49.4c1.7-1.5,4.3-1.4,5.8,0.3
				c1.5,1.7,1.4,4.3-0.3,5.8c-11.9,10.9-15.7,26-10.1,40.4c5.2,13.3,17.1,21.9,30.3,21.9c0,0,0,0,0,0c2.3,0,4.1,1.8,4.1,4.1
				C223.8,330,222,331.9,219.7,331.9C219.7,331.9,219.7,331.9,219.7,331.9z"/>
			<path class="st1" d="M354,368.2l-4.4,6.9c-3.4,5.2-10.3,6.7-15.5,3.3l-40.4-26.1c-5.2-3.4-6.7-10.3-3.3-15.5l4.4-6.9
				c3.4-5.2,10.3-6.7,15.5-3.3l40.4,26.1C355.9,356.1,357.4,363,354,368.2z"/>
		</g>
	</g>
</g>
</svg>
