<?xml version="1.0" encoding="utf-8"?>
<!-- Generator: Adobe Illustrator 27.9.0, SVG Export Plug-In . SVG Version: 6.00 Build 0)  -->
<svg version="1.1" xmlns="http://www.w3.org/2000/svg" xmlns:xlink="http://www.w3.org/1999/xlink" x="0px" y="0px"
	 viewBox="0 0 600 600" style="enable-background:new 0 0 600 600;" xml:space="preserve">
<style type="text/css">
	.st0{fill:#2D484C;}
	.st1{fill:#E39F51;}
	.st2{fill:#FFFFFF;stroke:#2D484C;stroke-miterlimit:10;}
	.st3{fill:#E2EBEE;}
	.st4{fill:#A4BCCA;}
	.st5{fill:#00FFFF;fill-opacity:0.1;}
	.st6{fill:#22494C;}
	.st7{fill:#5DB296;stroke:#E39F51;stroke-width:10;stroke-miterlimit:10;}
	.st8{fill:#FFFFFF;stroke:#2D484C;stroke-width:2;stroke-miterlimit:10;}
</style>
<g id="Layer_1">
</g>
<g id="icon">
</g>
<g id="Layer_3">
	<path class="st7" d="M403.5,567.4H194.1C106.3,567.4,35,496.2,35,408.3V198.9C35,111,106.3,39.8,194.1,39.8h209.4
		c87.9,0,159.1,71.2,159.1,159.1v209.4C562.6,496.2,491.4,567.4,403.5,567.4z"/>
	<g>
		<path class="st0" d="M337.3,428.5V201.9h87c16.3,0,29.9,2.6,40.7,7.7c10.8,5.1,19,12.1,24.3,21c5.4,8.9,8.1,18.9,8.1,30
			c0,9.2-1.7,17.1-5.2,23.6c-3.5,6.5-8.2,11.8-14.2,15.9c-6,4.1-12.7,7-20.1,8.8v2.3c8.1,0.3,15.8,2.7,23.2,7.2
			c7.3,4.5,13.4,10.8,18.1,18.9c4.7,8.1,7.1,17.9,7.1,29.3c0,11.8-2.8,22.3-8.4,31.5c-5.6,9.3-14.1,16.6-25.5,22
			c-11.4,5.4-25.8,8.1-43.1,8.1H337.3z M378.3,298.3h40.7c7,0,13.3-1.3,19-4c5.7-2.6,10.2-6.4,13.5-11.2c3.3-4.8,4.9-10.5,4.9-17.1
			c0-8.7-3.1-15.9-9.3-21.7c-6.2-5.7-15.3-8.6-27.2-8.6h-41.7V298.3z M378.3,394.2h44.1c14.9,0,25.7-2.9,32.3-8.7s10-13.1,10-22
			c0-6.8-1.7-12.9-5-18.2c-3.3-5.4-8.1-9.6-14.2-12.8c-6.1-3.1-13.4-4.7-21.7-4.7h-45.5V394.2z"/>
	</g>
	<g>
		<g>
			<path class="st8" d="M219.5,357.6H101.8c-4.4,0-8-3.6-8-8V176.8c0-4.4,3.6-8,8-8h117.7c4.4,0,8,3.6,8,8v172.8
				C227.5,354,223.9,357.6,219.5,357.6z"/>
			<path class="st3" d="M95.2,239.2c3.2,13.4,28.6,105.5,101.6,117.7l-88.3,0c-7.3,0.1-13.2-5.7-13.2-13V239.2z"/>
			<circle class="st4" cx="128.5" cy="215" r="13.2"/>
			<path class="st4" d="M198.7,212h-46.1c-0.9,0-1.7-0.8-1.7-1.7v-2.5c0-0.9,0.8-1.7,1.7-1.7h46.1c0.9,0,1.7,0.8,1.7,1.7v2.5
				C200.4,211.2,199.6,212,198.7,212z"/>
			<path class="st4" d="M182.8,254h-67.1c-0.9,0-1.7-0.8-1.7-1.7v-2.5c0-0.9,0.8-1.7,1.7-1.7h67.1c0.9,0,1.7,0.8,1.7,1.7v2.5
				C184.5,253.2,183.7,254,182.8,254z"/>
			<path class="st4" d="M182.8,287.4h-67.1c-0.9,0-1.7-0.8-1.7-1.7v-2.5c0-0.9,0.8-1.7,1.7-1.7h67.1c0.9,0,1.7,0.8,1.7,1.7v2.5
				C184.5,286.7,183.7,287.4,182.8,287.4z"/>
			<path class="st4" d="M198.7,300.1h-83c-0.9,0-1.7-0.8-1.7-1.7V296c0-0.9,0.8-1.7,1.7-1.7h83c0.9,0,1.7,0.8,1.7,1.7v2.5
				C200.4,299.4,199.6,300.1,198.7,300.1z"/>
			<path class="st4" d="M144.2,266.4h-28.6c-0.9,0-1.7-0.8-1.7-1.7v-2.5c0-0.9,0.8-1.7,1.7-1.7h28.6c0.9,0,1.7,0.8,1.7,1.7v2.5
				C145.9,265.7,145.2,266.4,144.2,266.4z"/>
			<path class="st4" d="M144.2,314h-28.6c-0.9,0-1.7-0.8-1.7-1.7v-2.5c0-0.9,0.8-1.7,1.7-1.7h28.6c0.9,0,1.7,0.8,1.7,1.7v2.5
				C145.9,313.2,145.2,314,144.2,314z"/>
			<path class="st4" d="M171.8,223h-19.2c-0.9,0-1.7-0.8-1.7-1.7v-2.5c0-0.9,0.8-1.7,1.7-1.7h19.2c0.9,0,1.7,0.8,1.7,1.7v2.5
				C173.4,222.2,172.7,223,171.8,223z"/>
		</g>
		<g>
			<path class="st8" d="M247.6,388.7H123.3c-4.4,0-8-3.6-8-8V198.5c0-4.4,3.6-8,8-8h124.3c4.4,0,8,3.6,8,8v182.2
				C255.6,385.1,252,388.7,247.6,388.7z"/>
			<path class="st3" d="M116.8,264.4c3.4,14.1,30,110.7,106.6,123.6l-92.7,0c-7.6,0.1-13.9-6-13.9-13.7V264.4z"/>
			<circle class="st4" cx="151.7" cy="239" r="13.9"/>
			<path class="st4" d="M225.5,235.8h-48.6c-0.9,0-1.7-0.8-1.7-1.7v-2.8c0-0.9,0.8-1.7,1.7-1.7h48.6c0.9,0,1.7,0.8,1.7,1.7v2.8
				C227.2,235.1,226.4,235.8,225.5,235.8z"/>
			<path class="st4" d="M208.8,279.9h-70.6c-0.9,0-1.7-0.8-1.7-1.7v-2.8c0-0.9,0.8-1.7,1.7-1.7h70.6c0.9,0,1.7,0.8,1.7,1.7v2.8
				C210.5,279.2,209.7,279.9,208.8,279.9z"/>
			<path class="st4" d="M208.8,315h-70.6c-0.9,0-1.7-0.8-1.7-1.7v-2.8c0-0.9,0.8-1.7,1.7-1.7h70.6c0.9,0,1.7,0.8,1.7,1.7v2.8
				C210.5,314.3,209.7,315,208.8,315z"/>
			<path class="st4" d="M225.5,328.4h-87.3c-0.9,0-1.7-0.8-1.7-1.7v-2.8c0-0.9,0.8-1.7,1.7-1.7h87.3c0.9,0,1.7,0.8,1.7,1.7v2.8
				C227.2,327.6,226.4,328.4,225.5,328.4z"/>
			<path class="st4" d="M168.3,293h-30.2c-0.9,0-1.7-0.8-1.7-1.7v-2.8c0-0.9,0.8-1.7,1.7-1.7h30.2c0.9,0,1.7,0.8,1.7,1.7v2.8
				C170,292.2,169.2,293,168.3,293z"/>
			<path class="st4" d="M168.3,342.9h-30.2c-0.9,0-1.7-0.8-1.7-1.7v-2.8c0-0.9,0.8-1.7,1.7-1.7h30.2c0.9,0,1.7,0.8,1.7,1.7v2.8
				C170,342.2,169.2,342.9,168.3,342.9z"/>
			<path class="st4" d="M197.2,247.4h-20.3c-0.9,0-1.7-0.8-1.7-1.7V243c0-0.9,0.8-1.7,1.7-1.7h20.3c0.9,0,1.7,0.8,1.7,1.7v2.8
				C198.9,246.7,198.1,247.4,197.2,247.4z"/>
		</g>
		<g>
			<path class="st8" d="M287.1,431.2H145.8c-4.4,0-8-3.6-8-8V217c0-4.4,3.6-8,8-8h141.3c4.4,0,8,3.6,8,8v206.2
				C295.1,427.6,291.5,431.2,287.1,431.2z"/>
			<path class="st3" d="M139.5,291.9c3.8,15.8,33.7,124.1,119.5,138.5l-104,0c-8.6,0.1-15.6-6.8-15.6-15.3V291.9z"/>
			<circle class="st4" cx="178.7" cy="263.4" r="15.5"/>
			<path class="st4" d="M261.6,259.8h-54.9c-0.9,0-1.7-0.8-1.7-1.7v-3.5c0-0.9,0.8-1.7,1.7-1.7h54.9c0.9,0,1.7,0.8,1.7,1.7v3.5
				C263.3,259.1,262.5,259.8,261.6,259.8z"/>
			<path class="st4" d="M242.9,309.2h-79.6c-0.9,0-1.7-0.8-1.7-1.7v-3.5c0-0.9,0.8-1.7,1.7-1.7h79.6c0.9,0,1.7,0.8,1.7,1.7v3.5
				C244.5,308.5,243.8,309.2,242.9,309.2z"/>
			<path class="st4" d="M242.9,348.6h-79.6c-0.9,0-1.7-0.8-1.7-1.7v-3.5c0-0.9,0.8-1.7,1.7-1.7h79.6c0.9,0,1.7,0.8,1.7,1.7v3.5
				C244.5,347.9,243.8,348.6,242.9,348.6z"/>
			<path class="st4" d="M261.6,363.6h-98.3c-0.9,0-1.7-0.8-1.7-1.7v-3.5c0-0.9,0.8-1.7,1.7-1.7h98.3c0.9,0,1.7,0.8,1.7,1.7v3.5
				C263.3,362.8,262.5,363.6,261.6,363.6z"/>
			<path class="st4" d="M197.5,323.9h-34.2c-0.9,0-1.7-0.8-1.7-1.7v-3.5c0-0.9,0.8-1.7,1.7-1.7h34.2c0.9,0,1.7,0.8,1.7,1.7v3.5
				C199.2,323.2,198.4,323.9,197.5,323.9z"/>
			<path class="st4" d="M197.5,379.9h-34.2c-0.9,0-1.7-0.8-1.7-1.7v-3.5c0-0.9,0.8-1.7,1.7-1.7h34.2c0.9,0,1.7,0.8,1.7,1.7v3.5
				C199.2,379.1,198.4,379.9,197.5,379.9z"/>
			<path class="st4" d="M229.9,272.8h-23.1c-0.9,0-1.7-0.8-1.7-1.7v-3.5c0-0.9,0.8-1.7,1.7-1.7h23.1c0.9,0,1.7,0.8,1.7,1.7v3.5
				C231.5,272.1,230.8,272.8,229.9,272.8z"/>
		</g>
		<g>
			<circle class="st5" cx="258" cy="315.7" r="66.9"/>
			
				<rect x="322.6" y="344.5" transform="matrix(0.5426 -0.84 0.84 0.5426 -153.9056 443.8994)" class="st6" width="16" height="37.4"/>
			<path class="st1" d="M258,391.2c-41.6,0-75.4-33.8-75.4-75.4s33.8-75.4,75.4-75.4c41.6,0,75.4,33.8,75.4,75.4
				S299.6,391.2,258,391.2z M258,257.3c-32.2,0-58.4,26.2-58.4,58.4s26.2,58.4,58.4,58.4s58.4-26.2,58.4-58.4S290.2,257.3,258,257.3
				z"/>
			<path class="st6" d="M255,365.8c-19,0-36.1-12.2-43.4-31c-7.7-19.9-2.4-41.6,14-56.6c1.9-1.7,4.9-1.6,6.6,0.3
				c1.7,1.9,1.6,4.9-0.3,6.6c-13.7,12.5-18,29.8-11.6,46.3c5.9,15.2,19.5,25.1,34.7,25.1c0,0,0,0,0,0c2.6,0,4.7,2.1,4.7,4.7
				C259.7,363.7,257.6,365.8,255,365.8C255,365.8,255,365.8,255,365.8z"/>
			<path class="st1" d="M409.7,406.1l-6.8,10.6c-3.4,5.2-10.3,6.7-15.5,3.3l-49-31.6c-5.2-3.4-6.7-10.3-3.3-15.5l6.8-10.6
				c3.4-5.2,10.3-6.7,15.5-3.3l49,31.6C411.6,393.9,413.1,400.9,409.7,406.1z"/>
		</g>
	</g>
</g>
</svg>
